<?xml version="1.0" encoding="UTF-8"?>
<svg width="599px" height="116px" viewBox="0 0 599 116" version="1.1" xmlns="http://www.w3.org/2000/svg" xmlns:xlink="http://www.w3.org/1999/xlink">
    <title>OpenBlend</title>
    <g id="OpenBlend" stroke="none" stroke-width="1" fill="none" fill-rule="evenodd">
        <g id="Group" transform="translate(0.000000, -0.143613)" fill="#000000" fill-rule="nonzero">
            <path d="M36.1323528,93.1297356 C57.6516212,93.1297356 72.5649745,77.3813518 72.5649745,54.7117038 C72.5649745,32.0420558 57.7517108,16.3939802 36.2324425,16.3939802 C14.8132638,16.3939802 0,32.142364 0,54.812012 C0,77.48166 14.7131741,93.1297356 36.1323528,93.1297356 Z M36.3325321,77.48166 C24.3217777,77.48166 17.115325,68.955465 17.115325,54.7117038 C17.115325,40.5682508 24.3217777,32.0420558 36.3325321,32.0420558 C48.2431969,32.0420558 55.4496495,40.5682508 55.4496495,54.7117038 C55.4496495,68.7548486 48.2431969,77.48166 36.3325321,77.48166 Z M96.6365282,116 L96.6365282,86.9106287 C99.5391271,90.7223394 105.944863,93.330352 112.851047,93.330352 C127.7644,93.330352 136.372107,81.8952198 136.372107,66.0465278 C136.372107,49.8969113 126.663414,40.1670181 112.750957,40.1670181 C105.644594,40.1670181 99.3389479,43.2765716 96.5364385,47.8907478 L95.7357216,41.771949 L81.2227267,41.771949 L81.2227267,116 L96.6365282,116 Z M108.947551,79.3875154 C101.741099,79.3875154 96.7366178,74.3721065 96.7366178,66.8489932 C96.7366178,59.32588 101.741099,54.3104711 108.947551,54.3104711 C116.254094,54.3104711 120.858216,59.4261881 120.858216,66.8489932 C120.858216,74.2717983 116.254094,79.3875154 108.947551,79.3875154 Z M167.750203,93.2300438 C181.462481,93.2300438 191.371354,86.1081632 193.172967,74.9739556 L179.06033,74.9739556 C177.959344,78.58505 173.85567,80.6915217 168.050472,80.6915217 C161.244378,80.6915217 157.541062,77.5819682 156.640255,70.9616285 L192.972787,70.7610121 L192.972787,66.8489932 C192.972787,50.4987604 183.164005,40.1670181 167.449934,40.1670181 C152.336402,40.1670181 141.826992,51.1006094 141.826992,66.7486851 C141.826992,82.1961443 152.636671,93.2300438 167.750203,93.2300438 Z M177.659076,61.4323517 L156.840435,61.4323517 C158.04151,55.4138611 161.444557,52.7055403 167.550024,52.7055403 C173.75558,52.7055403 177.659076,56.1160183 177.659076,61.4323517 Z M216.744072,91.9260375 L216.744072,64.441597 C216.744072,58.22249 220.647567,54.2101629 226.753034,54.2101629 C232.057784,54.2101629 235.560921,58.3227982 235.560921,64.6422133 L235.560921,91.9260375 L250.974722,91.9260375 L250.974722,60.9308108 C250.974722,47.7904396 244.068538,40.1670181 232.157874,40.1670181 C225.652048,40.1670181 219.94694,42.6747226 216.844162,46.9879742 L215.843266,41.771949 L201.330271,41.771949 L201.330271,91.9260375 L216.744072,91.9260375 Z M293.963214,91.9260375 C309.977553,91.9260375 318.78544,84.6035406 318.78544,71.4631694 C318.78544,63.0372825 314.881945,57.3197164 307.575402,54.9123202 C314.281407,52.003383 317.884633,46.1855088 317.884633,38.2611628 C317.884633,25.5220243 308.876567,17.6979865 293.963214,17.6979865 L263.135611,17.6979865 L263.135611,91.9260375 L293.963214,91.9260375 Z M292.261691,48.0913641 L279.35013,48.0913641 L279.35013,31.9417476 L292.261691,31.9417476 C298.166978,31.9417476 301.269756,34.6500684 301.269756,39.8660936 C301.269756,45.182427 298.066889,48.0913641 292.261691,48.0913641 Z M293.062408,77.6822764 L279.35013,77.6822764 L279.35013,61.7332762 L293.062408,61.7332762 C298.967695,61.7332762 302.170563,64.441597 302.170563,69.4570058 C302.170563,74.9739556 299.067785,77.6822764 293.062408,77.6822764 Z M342.456635,91.9260375 L342.456635,16.293672 L327.042834,16.293672 L327.042834,91.9260375 L342.456635,91.9260375 Z M376.537151,93.2300438 C390.249429,93.2300438 400.158301,86.1081632 401.959914,74.9739556 L387.847278,74.9739556 C386.746292,78.58505 382.642617,80.6915217 376.837419,80.6915217 C370.031325,80.6915217 366.328009,77.5819682 365.427203,70.9616285 L401.759735,70.7610121 L401.759735,66.8489932 C401.759735,50.4987604 391.950952,40.1670181 376.236882,40.1670181 C361.123349,40.1670181 350.613939,51.1006094 350.613939,66.7486851 C350.613939,82.1961443 361.423618,93.2300438 376.537151,93.2300438 Z M386.446023,61.4323517 L365.627382,61.4323517 C366.828457,55.4138611 370.231505,52.7055403 376.336971,52.7055403 C382.542528,52.7055403 386.446023,56.1160183 386.446023,61.4323517 Z M425.53102,91.9260375 L425.53102,64.441597 C425.53102,58.22249 429.434515,54.2101629 435.539982,54.2101629 C440.844732,54.2101629 444.347868,58.3227982 444.347868,64.6422133 L444.347868,91.9260375 L459.76167,91.9260375 L459.76167,60.9308108 C459.76167,47.7904396 452.855486,40.1670181 440.944821,40.1670181 C434.438996,40.1670181 428.733887,42.6747226 425.631109,46.9879742 L424.630213,41.771949 L410.117218,41.771949 L410.117218,91.9260375 L425.53102,91.9260375 Z M491.039676,93.2300438 C498.246129,93.2300438 504.451685,90.1204903 507.154105,85.5063142 L507.954822,91.9260375 L522.467817,91.9260375 L522.467817,16.293672 L507.054015,16.293672 L507.054015,46.3861251 C504.151416,42.6747226 498.246129,40.1670181 492.040572,40.1670181 C476.82695,40.1670181 467.318436,51.2009176 467.318436,67.1499178 C467.318436,82.9986097 476.626771,93.2300438 491.039676,93.2300438 Z M494.742992,79.0865908 C487.43645,79.0865908 482.832327,73.9708738 482.832327,66.5480687 C482.832327,59.1252636 487.43645,54.0095466 494.742992,54.0095466 C501.949445,54.0095466 506.953926,59.0249554 506.953926,66.5480687 C506.953926,74.071182 501.949445,79.0865908 494.742992,79.0865908 Z" id="OpenBlend"></path>
            <g id="Group-2" transform="translate(543.584862, 0.000000)">
                <polygon id="Path" points="55.4151376 45.7844404 55.4151376 60.830667 11.126923 60.830667 11.126923 45.7844404"></polygon>
                <polygon id="Path" points="36.2769687 0 44.8884042 12.3250922 8.61143553 37.7823114 0 25.4572191"></polygon>
                <polygon id="Path" points="8.61159956 68.8324673 44.8885683 94.2896864 36.2771327 106.614779 0.000164030424 81.1575595"></polygon>
            </g>
        </g>
    </g>
</svg>